<?xml version="1.0" encoding="UTF-8"?>
<svg xmlns="http://www.w3.org/2000/svg" xmlns:xlink="http://www.w3.org/1999/xlink" width="28px" height="28px" viewBox="0 0 28 28" version="1.1">
<defs>
<linearGradient id="linear0" gradientUnits="userSpaceOnUse" x1="127.857" y1="18" x2="127.857" y2="72.8555" >
<stop offset="0" style="stop-color:rgb(0%,0%,0%);stop-opacity:0.2;"/>
<stop offset="1" style="stop-color:rgb(0%,0%,0%);stop-opacity:0;"/>
</linearGradient>
<linearGradient id="linear1" gradientUnits="userSpaceOnUse" x1="128.357" y1="72.8555" x2="128.357" y2="196.285" >
<stop offset="0" style="stop-color:rgb(0%,0%,0%);stop-opacity:0.2;"/>
<stop offset="1" style="stop-color:rgb(0%,0%,0%);stop-opacity:0;"/>
</linearGradient>
<linearGradient id="linear2" gradientUnits="userSpaceOnUse" x1="127.857" y1="127.715" x2="127.857" y2="200.855" >
<stop offset="0" style="stop-color:rgb(0%,0%,0%);stop-opacity:0.2;"/>
<stop offset="1" style="stop-color:rgb(0%,0%,0%);stop-opacity:0;"/>
</linearGradient>
<linearGradient id="linear3" gradientUnits="userSpaceOnUse" x1="127.857" y1="118.57" x2="127.857" y2="119.57" >
<stop offset="0" style="stop-color:rgb(0%,0%,0%);stop-opacity:0.2;"/>
<stop offset="1" style="stop-color:rgb(0%,0%,0%);stop-opacity:0;"/>
</linearGradient>
<linearGradient id="linear4" gradientUnits="userSpaceOnUse" x1="128" y1="237" x2="127.857" y2="255.715" >
<stop offset="0" style="stop-color:rgb(89.803922%,89.803922%,89.803922%);stop-opacity:0.2;"/>
<stop offset="0.296875" style="stop-color:rgb(0%,0%,0%);stop-opacity:0.2;"/>
</linearGradient>
<linearGradient id="linear5" gradientUnits="userSpaceOnUse" x1="128" y1="237" x2="127.857" y2="255.715" >
<stop offset="0" style="stop-color:rgb(0%,0%,0%);stop-opacity:0.2;"/>
<stop offset="1" style="stop-color:rgb(0%,0%,0%);stop-opacity:0;"/>
</linearGradient>
</defs>
<g id="surface1">
<path style="fill:none;stroke-width:18.2857;stroke-linecap:round;stroke-linejoin:round;stroke:rgb(89.803922%,89.803922%,89.803922%);stroke-opacity:1;stroke-miterlimit:4;" d="M 127.857143 72.857143 C 143 72.857143 155.285714 60.571429 155.285714 45.428571 C 155.285714 30.285714 143 18 127.857143 18 C 112.714286 18 100.428571 30.285714 100.428571 45.428571 C 100.428571 60.571429 112.714286 72.857143 127.857143 72.857143 Z M 127.857143 72.857143 " transform="matrix(0.109375,0,0,0.109375,0,0)"/>
<path style="fill:none;stroke-width:18.2857;stroke-linecap:round;stroke-linejoin:round;stroke:url(#linear0);stroke-miterlimit:4;" d="M 127.857143 72.857143 C 143 72.857143 155.285714 60.571429 155.285714 45.428571 C 155.285714 30.285714 143 18 127.857143 18 C 112.714286 18 100.428571 30.285714 100.428571 45.428571 C 100.428571 60.571429 112.714286 72.857143 127.857143 72.857143 Z M 127.857143 72.857143 " transform="matrix(0.109375,0,0,0.109375,0,0)"/>
<path style="fill:none;stroke-width:18.2857;stroke-linecap:round;stroke-linejoin:round;stroke:rgb(89.803922%,89.803922%,89.803922%);stroke-opacity:1;stroke-miterlimit:4;" d="M 127.857143 196.285714 L 127.857143 72.857143 " transform="matrix(0.109375,0,0,0.109375,0,0)"/>
<path style="fill:none;stroke-width:18.2857;stroke-linecap:round;stroke-linejoin:round;stroke:url(#linear1);stroke-miterlimit:4;" d="M 127.857143 196.285714 L 127.857143 72.857143 " transform="matrix(0.109375,0,0,0.109375,0,0)"/>
<path style="fill:none;stroke-width:18.2857;stroke-linecap:round;stroke-linejoin:round;stroke:rgb(89.803922%,89.803922%,89.803922%);stroke-opacity:1;stroke-miterlimit:4;" d="M 45.571429 127.714286 C 45.571429 151.964286 46.071429 156.928571 63.214286 174.071429 C 80.357143 191.214286 103.607143 200.857143 127.857143 200.857143 C 152.107143 200.857143 175.357143 191.214286 192.5 174.071429 C 209.642857 156.928571 210.142857 151.964286 210.142857 127.714286 " transform="matrix(0.109375,0,0,0.109375,0,0)"/>
<path style="fill:none;stroke-width:18.2857;stroke-linecap:round;stroke-linejoin:round;stroke:url(#linear2);stroke-miterlimit:4;" d="M 45.571429 127.714286 C 45.571429 151.964286 46.071429 156.928571 63.214286 174.071429 C 80.357143 191.214286 103.607143 200.857143 127.857143 200.857143 C 152.107143 200.857143 175.357143 191.214286 192.5 174.071429 C 209.642857 156.928571 210.142857 151.964286 210.142857 127.714286 " transform="matrix(0.109375,0,0,0.109375,0,0)"/>
<path style="fill:none;stroke-width:18.2857;stroke-linecap:round;stroke-linejoin:miter;stroke:rgb(89.803922%,89.803922%,89.803922%);stroke-opacity:1;stroke-miterlimit:4;" d="M 100.428571 118.571429 L 155.285714 118.571429 " transform="matrix(0.109375,0,0,0.109375,0,0)"/>
<path style="fill:none;stroke-width:18.2857;stroke-linecap:round;stroke-linejoin:miter;stroke:url(#linear3);stroke-miterlimit:4;" d="M 100.428571 118.571429 L 155.285714 118.571429 " transform="matrix(0.109375,0,0,0.109375,0,0)"/>
<path style=" stroke:none;fill-rule:nonzero;fill:rgb(89.803922%,89.803922%,89.803922%);fill-opacity:1;" d="M 9.890625 23.96875 C 10.160156 23.96875 10.402344 24.085938 10.519531 24.261719 C 10.605469 24.355469 10.667969 24.46875 10.699219 24.585938 C 10.742188 24.734375 10.796875 24.882812 10.871094 25.023438 C 11.039062 25.355469 11.285156 25.660156 11.59375 25.917969 C 11.90625 26.171875 12.273438 26.375 12.679688 26.511719 C 13.085938 26.652344 13.519531 26.722656 13.957031 26.722656 C 14.398438 26.722656 14.832031 26.652344 15.238281 26.511719 C 15.644531 26.375 16.011719 26.171875 16.324219 25.917969 C 16.632812 25.660156 16.878906 25.355469 17.046875 25.023438 C 17.121094 24.882812 17.175781 24.734375 17.21875 24.585938 C 17.3125 24.25 17.640625 23.96875 18.058594 23.96875 C 18.0625 23.96875 18.066406 23.96875 18.070312 23.96875 C 18.070312 23.96875 18.074219 23.96875 18.078125 23.96875 C 18.496094 23.96875 18.824219 24.25 18.917969 24.585938 C 18.960938 24.734375 19.015625 24.882812 19.089844 25.023438 C 19.257812 25.355469 19.503906 25.660156 19.8125 25.917969 C 20.125 26.171875 20.492188 26.375 20.898438 26.511719 C 21.304688 26.652344 21.738281 26.722656 22.179688 26.722656 C 22.617188 26.722656 23.050781 26.652344 23.457031 26.511719 C 23.863281 26.375 24.230469 26.171875 24.542969 25.917969 C 24.851562 25.660156 25.101562 25.355469 25.269531 25.023438 C 25.339844 24.882812 25.394531 24.734375 25.4375 24.585938 C 25.53125 24.25 25.859375 23.96875 26.277344 23.96875 C 26.695312 23.96875 27.042969 24.25 26.976562 24.589844 C 26.917969 24.902344 26.8125 25.207031 26.664062 25.5 C 26.421875 25.984375 26.0625 26.425781 25.613281 26.796875 C 25.160156 27.167969 24.625 27.464844 24.039062 27.664062 C 23.449219 27.863281 22.816406 27.96875 22.179688 27.96875 C 21.539062 27.96875 20.910156 27.863281 20.320312 27.664062 C 19.730469 27.464844 19.195312 27.167969 18.742188 26.796875 C 18.488281 26.585938 18.261719 26.351562 18.070312 26.101562 C 17.875 26.351562 17.648438 26.585938 17.394531 26.796875 C 16.941406 27.167969 16.40625 27.464844 15.816406 27.664062 C 15.226562 27.863281 14.597656 27.96875 13.957031 27.96875 C 13.320312 27.96875 12.691406 27.863281 12.101562 27.664062 C 11.511719 27.464844 10.976562 27.167969 10.523438 26.796875 C 10.28125 26.59375 10.0625 26.371094 9.875 26.132812 C 9.6875 26.371094 9.46875 26.59375 9.226562 26.796875 C 8.773438 27.167969 8.238281 27.464844 7.648438 27.664062 C 7.058594 27.863281 6.429688 27.96875 5.789062 27.96875 C 5.152344 27.96875 4.519531 27.863281 3.933594 27.664062 C 3.34375 27.464844 2.808594 27.167969 2.355469 26.796875 C 1.90625 26.425781 1.546875 25.984375 1.304688 25.5 C 1.15625 25.207031 1.050781 24.902344 0.992188 24.589844 C 0.925781 24.25 1.273438 23.96875 1.691406 23.96875 C 2.109375 23.96875 2.4375 24.25 2.53125 24.585938 C 2.574219 24.734375 2.628906 24.882812 2.699219 25.023438 C 2.867188 25.355469 3.117188 25.660156 3.425781 25.917969 C 3.738281 26.171875 4.105469 26.375 4.511719 26.511719 C 4.917969 26.652344 5.351562 26.722656 5.789062 26.722656 C 6.230469 26.722656 6.664062 26.652344 7.070312 26.511719 C 7.476562 26.375 7.84375 26.171875 8.15625 25.917969 C 8.464844 25.660156 8.710938 25.355469 8.878906 25.023438 C 8.953125 24.882812 9.007812 24.734375 9.050781 24.585938 C 9.082031 24.46875 9.144531 24.355469 9.230469 24.261719 C 9.347656 24.085938 9.589844 23.96875 9.859375 23.96875 Z M 9.890625 23.96875 "/>
<path style="fill:none;stroke-width:1;stroke-linecap:butt;stroke-linejoin:miter;stroke:url(#linear4);stroke-miterlimit:4;" d="M 95.785714 222.142857 L 95.75 222.107143 C 94.785714 220.678571 92.785714 219.642857 90.428571 219.642857 L 90.142857 219.642857 C 87.785714 219.642857 85.785714 220.678571 84.821429 222.107143 L 84.785714 222.142857 L 84.75 222.142857 C 84.035714 222.964286 83.5 223.928571 83.214286 224.928571 C 82.821429 226.321429 82.285714 227.678571 81.642857 229 M 95.785714 222.142857 L 81.178571 228.785714 M 95.785714 222.142857 L 95.785714 222.142857 M 95.785714 222.142857 L 95.785714 222.142857 M 81.642857 229 L 81.178571 228.785714 M 81.642857 229 L 81.178571 228.785714 M 81.642857 229 C 80.071429 232.107143 77.785714 234.964286 74.892857 237.321429 C 72 239.714286 68.571429 241.607143 64.821429 242.892857 C 61.035714 244.178571 57 244.821429 52.928571 244.821429 C 48.857143 244.821429 44.857143 244.178571 41.071429 242.892857 C 37.321429 241.607143 33.892857 239.714286 31 237.321429 C 28.107143 234.964286 25.821429 232.107143 24.25 229 M 81.178571 228.785714 C 79.642857 231.821429 77.392857 234.607143 74.571429 236.964286 C 71.714286 239.285714 68.357143 241.142857 64.642857 242.392857 C 60.928571 243.678571 56.964286 244.321429 52.928571 244.321429 C 48.928571 244.321429 44.964286 243.678571 41.25 242.392857 C 37.535714 241.142857 34.178571 239.285714 31.321429 236.964286 C 28.5 234.607143 26.214286 231.821429 24.678571 228.785714 C 24.035714 227.5 23.535714 226.142857 23.142857 224.785714 L 22.678571 224.928571 M 24.25 229 L 24.678571 228.785714 Z M 24.25 229 C 23.571429 227.678571 23.035714 226.321429 22.678571 224.928571 M 22.678571 224.928571 C 21.857143 222.071429 19.035714 219.642857 15.464286 219.642857 C 13.642857 219.642857 12.035714 220.25 10.928571 221.178571 C 9.857143 222.142857 9.321429 223.392857 9.571429 224.714286 C 10.107143 227.535714 11.035714 230.285714 12.357143 232.928571 C 14.571429 237.285714 17.785714 241.25 21.857143 244.607143 C 25.928571 247.964286 30.785714 250.642857 36.107143 252.464286 C 41.428571 254.285714 47.178571 255.214286 52.928571 255.214286 C 58.714286 255.214286 64.428571 254.285714 69.785714 252.464286 C 75.107143 250.642857 79.964286 247.964286 84.035714 244.607143 Z M 95.785714 222.142857 C 96.535714 222.964286 97.071429 223.928571 97.357143 224.928571 Z M 110.785714 252.464286 C 105.464286 250.642857 100.607143 247.964286 96.535714 244.607143 L 231.035714 228.785714 C 231.678571 227.5 232.178571 226.142857 232.571429 224.785714 L 233.035714 224.928571 C 233.857143 222.071429 236.678571 219.642857 240.25 219.642857 C 242.071429 219.642857 243.678571 220.25 244.785714 221.178571 C 245.857143 222.142857 246.392857 223.392857 246.142857 224.714286 C 245.607143 227.535714 244.678571 230.285714 243.357143 232.928571 C 241.142857 237.285714 237.928571 241.25 233.857143 244.607143 C 229.785714 247.964286 224.928571 250.642857 219.607143 252.464286 C 214.285714 254.285714 208.535714 255.214286 202.785714 255.214286 C 197 255.214286 191.285714 254.285714 185.928571 252.464286 C 180.607143 250.642857 175.75 247.964286 171.678571 244.607143 C 169.357143 242.714286 167.321429 240.607143 165.607143 238.321429 L 165.214286 237.821429 L 164.821429 238.321429 C 163.071429 240.607143 161.035714 242.714286 158.714286 244.607143 C 154.642857 247.964286 149.785714 250.642857 144.464286 252.464286 C 139.107143 254.285714 133.392857 255.214286 127.607143 255.214286 C 121.857143 255.214286 116.142857 254.285714 110.785714 252.464286 Z M 172.5 224.928571 L 172.964286 224.785714 L 155.857143 228.785714 C 156.535714 227.5 157.035714 226.142857 157.428571 224.785714 L 157.892857 224.928571 C 158.714286 222.071429 161.535714 219.642857 165.107143 219.642857 L 165.285714 219.642857 C 168.857143 219.642857 171.678571 222.071429 172.5 224.928571 Z M 96.535714 244.607143 C 94.321429 242.785714 92.357143 240.785714 90.678571 238.642857 L 90.285714 238.107143 L 89.892857 238.642857 C 88.214286 240.785714 86.25 242.785714 84.035714 244.607143 Z M 96.535714 244.607143 " transform="matrix(0.109375,0,0,0.109375,0,0)"/>
<path style="fill:none;stroke-width:1;stroke-linecap:butt;stroke-linejoin:miter;stroke:url(#linear5);stroke-miterlimit:4;" d="M 95.785714 222.142857 L 95.75 222.107143 C 94.785714 220.678571 92.785714 219.642857 90.428571 219.642857 L 90.142857 219.642857 C 87.785714 219.642857 85.785714 220.678571 84.821429 222.107143 L 84.785714 222.142857 L 84.75 222.142857 C 84.035714 222.964286 83.5 223.928571 83.214286 224.928571 C 82.821429 226.321429 82.285714 227.678571 81.642857 229 M 95.785714 222.142857 L 81.178571 228.785714 M 95.785714 222.142857 L 95.785714 222.142857 M 95.785714 222.142857 L 95.785714 222.142857 M 81.642857 229 L 81.178571 228.785714 M 81.642857 229 L 81.178571 228.785714 M 81.642857 229 C 80.071429 232.107143 77.785714 234.964286 74.892857 237.321429 C 72 239.714286 68.571429 241.607143 64.821429 242.892857 C 61.035714 244.178571 57 244.821429 52.928571 244.821429 C 48.857143 244.821429 44.857143 244.178571 41.071429 242.892857 C 37.321429 241.607143 33.892857 239.714286 31 237.321429 C 28.107143 234.964286 25.821429 232.107143 24.25 229 M 81.178571 228.785714 C 79.642857 231.821429 77.392857 234.607143 74.571429 236.964286 C 71.714286 239.285714 68.357143 241.142857 64.642857 242.392857 C 60.928571 243.678571 56.964286 244.321429 52.928571 244.321429 C 48.928571 244.321429 44.964286 243.678571 41.25 242.392857 C 37.535714 241.142857 34.178571 239.285714 31.321429 236.964286 C 28.5 234.607143 26.214286 231.821429 24.678571 228.785714 C 24.035714 227.5 23.535714 226.142857 23.142857 224.785714 L 22.678571 224.928571 M 24.25 229 L 24.678571 228.785714 Z M 24.25 229 C 23.571429 227.678571 23.035714 226.321429 22.678571 224.928571 M 22.678571 224.928571 C 21.857143 222.071429 19.035714 219.642857 15.464286 219.642857 C 13.642857 219.642857 12.035714 220.25 10.928571 221.178571 C 9.857143 222.142857 9.321429 223.392857 9.571429 224.714286 C 10.107143 227.535714 11.035714 230.285714 12.357143 232.928571 C 14.571429 237.285714 17.785714 241.25 21.857143 244.607143 C 25.928571 247.964286 30.785714 250.642857 36.107143 252.464286 C 41.428571 254.285714 47.178571 255.214286 52.928571 255.214286 C 58.714286 255.214286 64.428571 254.285714 69.785714 252.464286 C 75.107143 250.642857 79.964286 247.964286 84.035714 244.607143 Z M 95.785714 222.142857 C 96.535714 222.964286 97.071429 223.928571 97.357143 224.928571 Z M 110.785714 252.464286 C 105.464286 250.642857 100.607143 247.964286 96.535714 244.607143 L 231.035714 228.785714 C 231.678571 227.5 232.178571 226.142857 232.571429 224.785714 L 233.035714 224.928571 C 233.857143 222.071429 236.678571 219.642857 240.25 219.642857 C 242.071429 219.642857 243.678571 220.25 244.785714 221.178571 C 245.857143 222.142857 246.392857 223.392857 246.142857 224.714286 C 245.607143 227.535714 244.678571 230.285714 243.357143 232.928571 C 241.142857 237.285714 237.928571 241.25 233.857143 244.607143 C 229.785714 247.964286 224.928571 250.642857 219.607143 252.464286 C 214.285714 254.285714 208.535714 255.214286 202.785714 255.214286 C 197 255.214286 191.285714 254.285714 185.928571 252.464286 C 180.607143 250.642857 175.75 247.964286 171.678571 244.607143 C 169.357143 242.714286 167.321429 240.607143 165.607143 238.321429 L 165.214286 237.821429 L 164.821429 238.321429 C 163.071429 240.607143 161.035714 242.714286 158.714286 244.607143 C 154.642857 247.964286 149.785714 250.642857 144.464286 252.464286 C 139.107143 254.285714 133.392857 255.214286 127.607143 255.214286 C 121.857143 255.214286 116.142857 254.285714 110.785714 252.464286 Z M 172.5 224.928571 L 172.964286 224.785714 L 155.857143 228.785714 C 156.535714 227.5 157.035714 226.142857 157.428571 224.785714 L 157.892857 224.928571 C 158.714286 222.071429 161.535714 219.642857 165.107143 219.642857 L 165.285714 219.642857 C 168.857143 219.642857 171.678571 222.071429 172.5 224.928571 Z M 96.535714 244.607143 C 94.321429 242.785714 92.357143 240.785714 90.678571 238.642857 L 90.285714 238.107143 L 89.892857 238.642857 C 88.214286 240.785714 86.25 242.785714 84.035714 244.607143 Z M 96.535714 244.607143 " transform="matrix(0.109375,0,0,0.109375,0,0)"/>
</g>
</svg>
