<svg width="28" height="28" viewBox="0 0 28 28" fill="none" xmlns="http://www.w3.org/2000/svg">
<path d="M14 7.5C15.6569 7.5 17 6.15685 17 4.5C17 2.84315 15.6569 1.5 14 1.5C12.3431 1.5 11 2.84315 11 4.5C11 6.15685 12.3431 7.5 14 7.5Z" stroke="white" stroke-width="2" stroke-linecap="round" stroke-linejoin="round"/>
<path d="M14 21V7.5" stroke="white" stroke-width="2" stroke-linecap="round" stroke-linejoin="round"/>
<path d="M5 13.5C5 16.1522 5.05357 16.6957 6.92893 18.5711C8.8043 20.4464 11.3478 21.5 14 21.5C16.6522 21.5 19.1957 20.4464 21.0711 18.5711C22.9464 16.6957 23 16.1522 23 13.5" stroke="white" stroke-width="2" stroke-linecap="round" stroke-linejoin="round"/>
<path d="M11 12.5H17" stroke="white" stroke-width="2" stroke-linecap="round"/>
<path d="M9.90657 23.5C10.177 23.5 10.4168 23.6176 10.5347 23.7927C10.6201 23.8877 10.6825 23.9994 10.7156 24.1176C10.7571 24.2664 10.8137 24.4123 10.885 24.554C11.053 24.8881 11.2993 25.1917 11.6099 25.4475C11.9204 25.7032 12.2891 25.9061 12.6948 26.0445C13.1005 26.1829 13.5354 26.2541 13.9745 26.2541C14.4137 26.2541 14.8486 26.1829 15.2543 26.0445C15.66 25.9061 16.0287 25.7032 16.3392 25.4475C16.6497 25.1917 16.8961 24.8881 17.0641 24.554C17.1354 24.4123 17.192 24.2664 17.2335 24.1176C17.3272 23.7824 17.6573 23.5 18.0751 23.5C18.0781 23.5 18.0812 23.5 18.0843 23.5C18.0873 23.5 18.0904 23.5 18.0934 23.5C18.5112 23.5 18.8413 23.7824 18.935 24.1176C18.9766 24.2664 19.0331 24.4123 19.1044 24.554C19.2724 24.8881 19.5188 25.1917 19.8293 25.4475C20.1398 25.7032 20.5085 25.9061 20.9142 26.0445C21.32 26.1829 21.7548 26.2541 22.194 26.2541C22.6331 26.2541 23.068 26.1829 23.4737 26.0445C23.8795 25.9061 24.2481 25.7032 24.5586 25.4475C24.8692 25.1917 25.1155 24.8881 25.2836 24.554C25.3548 24.4123 25.4114 24.2664 25.4529 24.1176C25.5466 23.7824 25.8768 23.5 26.2945 23.5C26.7123 23.5 27.0569 23.7806 26.9921 24.1204C26.9327 24.4322 26.8285 24.7378 26.6812 25.0307C26.4371 25.516 26.0794 25.957 25.6283 26.3284C25.1773 26.6999 24.6419 26.9945 24.0526 27.1955C23.4634 27.3965 22.8318 27.5 22.194 27.5C21.5562 27.5 20.9246 27.3965 20.3353 27.1955C19.746 26.9945 19.2106 26.6999 18.7596 26.3284C18.5031 26.1171 18.2767 25.8834 18.0843 25.6318C17.8918 25.8834 17.6655 26.1171 17.4089 26.3284C16.9579 26.6999 16.4225 26.9945 15.8332 27.1955C15.2439 27.3965 14.6124 27.5 13.9745 27.5C13.3367 27.5 12.7051 27.3965 12.1159 27.1955C11.5266 26.9945 10.9912 26.6999 10.5402 26.3284C10.2949 26.1264 10.0771 25.9038 9.89029 25.6647C9.70343 25.9038 9.48571 26.1264 9.24039 26.3284C8.78939 26.6999 8.25397 26.9945 7.66469 27.1955C7.07542 27.3965 6.44384 27.5 5.80602 27.5C5.1682 27.5 4.53662 27.3965 3.94735 27.1955C3.35808 26.9945 2.82266 26.6999 2.37165 26.3284C1.92064 25.957 1.56288 25.516 1.3188 25.0307C1.17147 24.7378 1.0673 24.4322 1.00787 24.1204C0.94307 23.7806 1.28773 23.5 1.70548 23.5C2.12322 23.5 2.45337 23.7824 2.54705 24.1176C2.5886 24.2664 2.64519 24.4123 2.71643 24.554C2.88449 24.8881 3.13082 25.1917 3.44135 25.4475C3.75188 25.7032 4.12054 25.9061 4.52627 26.0445C4.932 26.1829 5.36686 26.2541 5.80602 26.2541C6.24518 26.2541 6.68004 26.1829 7.08577 26.0445C7.49151 25.9061 7.86016 25.7032 8.17069 25.4475C8.48122 25.1917 8.72755 24.8881 8.89561 24.554C8.96686 24.4123 9.02344 24.2664 9.06499 24.1176C9.09804 23.9994 9.1605 23.8877 9.24586 23.7927C9.36378 23.6176 9.60358 23.5 9.874 23.5L9.89029 23.5001L9.90657 23.5Z" fill="white"/>
</svg>
