<svg width="24" height="24" viewBox="0 0 24 24" fill="none" xmlns="http://www.w3.org/2000/svg">
<path d="M4.17442 16.4758C4.31378 16.3365 4.50104 16.2581 4.69701 16.2581H22.835C23.1659 16.2581 23.3314 16.6587 23.0962 16.8895L19.5122 20.4736C19.3729 20.6129 19.1856 20.6913 18.9896 20.6913H0.851673C0.520704 20.6913 0.35522 20.2907 0.590382 20.0599L4.17442 16.4758Z" fill="#E5E5E5"/>
<path d="M4.17442 3.09774C4.31378 2.95839 4.50104 2.88 4.69701 2.88H22.835C23.1659 2.88 23.3314 3.28065 23.0962 3.51145L19.5122 7.09114C19.3729 7.2305 19.1856 7.30888 18.9896 7.30888H0.851673C0.520704 7.30888 0.35522 6.90824 0.590382 6.67743L4.17442 3.09774Z" fill="#E5E5E5"/>
<path d="M19.5122 9.74323C19.3729 9.60388 19.1856 9.52549 18.9896 9.52549H0.851673C0.520704 9.52549 0.35522 9.92614 0.590382 10.1569L4.17442 13.7366C4.31378 13.876 4.50104 13.9544 4.69701 13.9544H22.835C23.1659 13.9544 23.3314 13.5537 23.0962 13.3229L19.5122 9.74323Z" fill="#E5E5E5"/>
</svg>
