<svg width="24" height="29" viewBox="0 0 24 29" fill="none" xmlns="http://www.w3.org/2000/svg">
<path d="M23.9886 20.5441L22.6055 14.3578C22.5671 14.1859 22.436 14.0497 22.2657 14.0047C22.0954 13.9597 21.9142 14.0132 21.7958 14.1437L17.5358 18.8378C17.4071 18.9797 17.3769 19.1852 17.4593 19.358C17.5418 19.5308 17.7205 19.6366 17.9117 19.6259L19.5295 19.5344C19.2592 20.4505 18.5909 21.3099 17.5822 22.0178C16.7467 22.6043 15.748 23.0411 14.6529 23.3096C14.3083 23.3942 13.9441 23.3155 13.665 23.0965C13.386 22.8775 13.2232 22.5422 13.2232 22.1875V11.5937C14.3397 11.1863 15.1973 10.2376 15.4786 9.06694H18.9639C19.5018 9.06694 19.9378 8.63095 19.9378 8.09307C19.9378 7.5552 19.5018 7.11921 18.9639 7.11921H15.4005C15.0587 6.07649 14.2506 5.24316 13.2232 4.86827V4.21071C13.8602 3.80561 14.2832 3.09405 14.2832 2.28323C14.2832 1.02224 13.261 0 12 0C10.7391 0 9.71686 1.02224 9.71686 2.28317C9.71686 3.09399 10.1399 3.80561 10.7769 4.21065V4.86827C9.74946 5.24316 8.94133 6.07649 8.59959 7.11921H5.03616C4.49829 7.11921 4.0623 7.5552 4.0623 8.09307C4.0623 8.63095 4.49829 9.06694 5.03616 9.06694H8.52149C8.80287 10.2376 9.66042 11.1863 10.777 11.5937V22.1875C10.777 22.5421 10.6139 22.877 10.335 23.0959C10.056 23.3148 9.69161 23.3942 9.34723 23.3097C8.2521 23.0411 7.25346 22.6043 6.41788 22.0179C5.40909 21.3099 4.74083 20.4506 4.47058 19.5344L6.08836 19.6259C6.27954 19.6367 6.4583 19.5309 6.54074 19.3581C6.62318 19.1852 6.59297 18.9797 6.4643 18.8379L2.20423 14.1438C2.08583 14.0133 1.90462 13.9597 1.7343 14.0047C1.56398 14.0498 1.43298 14.186 1.39451 14.3579L0.0113877 20.5441C-0.0303825 20.731 0.0449017 20.9245 0.202014 21.034C0.359126 21.1435 0.566815 21.1471 0.727657 21.0432L2.10093 20.1563C2.51185 21.629 3.51036 22.9659 5.01243 24.0202C5.80001 24.573 6.69235 25.0218 7.65606 25.3569C9.28601 25.9238 10.7796 26.8547 11.9999 28.0749L12 28.075L12.0001 28.0749C13.2306 26.8444 14.7002 25.9286 16.3438 25.3569C17.3075 25.0218 18.1999 24.573 18.9875 24.0202C20.4896 22.9659 21.4881 21.629 21.899 20.1563L23.2723 21.0432C23.4331 21.1471 23.6408 21.1435 23.7979 21.034C23.955 20.9245 24.0304 20.7309 23.9886 20.5441ZM12 9.86143C11.101 9.86143 10.3696 9.13005 10.3696 8.23098C10.3696 7.33198 11.101 6.60054 12 6.60054C12.8991 6.60054 13.6304 7.33192 13.6304 8.23098C13.6304 9.13005 12.899 9.86143 12 9.86143Z" fill="#D7DAE0"/>
</svg>
